<svg width="40" height="45" viewBox="0 0 40 45" fill="none" xmlns="http://www.w3.org/2000/svg">
<g clip-path="url(#clip0_6_5)">
<path d="M27.6293 1.28406L19.5503 12.0957L18.8361 11.1652L11.3374 1.32837L6.29358 5.05042L16.3365 18.4321V28.0917H22.7194V18.3878L32.7177 5.05042L27.6293 1.28406Z" fill="white"/>
<path d="M30.2628 14.9758L26.3349 19.9386C28.2096 21.711 29.3701 24.2367 29.3701 26.9839C29.3701 32.3897 24.9512 36.7764 19.5057 36.7764C14.0602 36.7764 9.64129 32.3897 9.64129 26.9839C9.64129 24.1923 10.8464 21.6667 12.7211 19.8943L8.83785 14.8872C5.40092 17.8117 3.25842 22.1541 3.25842 26.9839C3.25842 35.8902 10.534 43.1128 19.5057 43.1128C28.4774 43.1128 35.753 35.8902 35.753 26.9839C35.753 22.1984 33.6105 17.9003 30.2628 14.9758Z" fill="white"/>
</g>
<defs>
<clipPath id="clip0_6_5">
<rect width="39.3684" height="44" fill="white" transform="translate(0 0.353516)"/>
</clipPath>
</defs>
</svg>
